<?xml version="1.0" encoding="UTF-8" standalone="no"?>
<!-- Created with Inkscape (http://www.inkscape.org/) -->

<svg
   version="1.1"
   id="svg65097"
   xml:space="preserve"
   width="332"
   height="305"
   viewBox="0 0 332 305"
   sodipodi:docname="taco_cat.svg"
   inkscape:version="1.1.2 (b8e25be833, 2022-02-05)"
   xmlns:inkscape="http://www.inkscape.org/namespaces/inkscape"
   xmlns:sodipodi="http://sodipodi.sourceforge.net/DTD/sodipodi-0.dtd"
   xmlns="http://www.w3.org/2000/svg"
   xmlns:svg="http://www.w3.org/2000/svg"><defs
     id="defs65101"><rect
       x="89.853302"
       y="400.978"
       width="431.54034"
       height="102.68949"
       id="rect81455" /><clipPath
       clipPathUnits="userSpaceOnUse"
       id="clipPath65111"><path
         d="m 76.687,134.655 h 149.999 v 90 H 76.687 Z"
         id="path65109" /></clipPath><clipPath
       clipPathUnits="userSpaceOnUse"
       id="clipPath65135"><path
         d="m 155.062,159.389 h 143.25 v 149.999 h -143.25 z"
         id="path65133" /></clipPath><rect
       x="68.739311"
       y="383.07153"
       width="505.20059"
       height="123.7975"
       id="rect15827" /></defs><sodipodi:namedview
     id="namedview65099"
     pagecolor="#ffffff"
     bordercolor="#666666"
     borderopacity="1.0"
     inkscape:pageshadow="2"
     inkscape:pageopacity="0.0"
     inkscape:pagecheckerboard="0"
     showgrid="false"
     inkscape:zoom="1.636"
     inkscape:cx="222.79951"
     inkscape:cy="250"
     inkscape:window-width="1920"
     inkscape:window-height="1027"
     inkscape:window-x="-8"
     inkscape:window-y="-8"
     inkscape:window-maximized="1"
     inkscape:current-layer="g65103" /><g
     id="g65103"
     inkscape:groupmode="layer"
     inkscape:label="taco_cat"
     transform="matrix(1.3333333,0,0,-1.3333333,0,500)"><g
       id="g2696"><g
         id="g65105"
         transform="translate(-74.724941,63.722495)"><g
           id="g65107"
           clip-path="url(#clipPath65111)"><g
             id="g65113"
             transform="translate(161.6553,200.6118)"><path
               d="m 0,0 c -0.749,7.615 -7.225,13.611 -15.02,13.611 -6.716,0 -12.412,-4.407 -14.36,-10.463 1.529,0.3 3.058,0.51 4.617,0.689 1.888,3.448 5.546,5.787 9.743,5.787 5.007,0 9.264,-3.358 10.643,-7.945 C -2.908,1.169 -1.439,0.6 0,0 m -18.288,4.047 c -0.689,0.03 -1.409,0 -2.098,0 1.379,1.349 3.267,2.159 5.366,2.159 2.668,0 5.007,-1.349 6.416,-3.388 -3.148,0.72 -6.356,1.139 -9.684,1.229 M 30.25,-39.214 c -0.24,1.439 -0.51,2.878 -0.87,4.287 2.459,2.039 4.018,5.097 4.018,8.545 0,6.116 -4.977,11.092 -11.093,11.092 -0.809,0 -1.589,-0.09 -2.338,-0.24 -0.9,1.14 -1.829,2.249 -2.818,3.328 1.618,0.6 3.357,0.93 5.156,0.93 8.335,0 15.11,-6.776 15.11,-15.11 -0.03,-5.427 -2.878,-10.164 -7.165,-12.832 m -8.065,20.536 h 0.12 c 4.287,0 7.735,-3.477 7.735,-7.734 0,-1.829 -0.66,-3.508 -1.739,-4.827 -1.499,4.497 -3.567,8.724 -6.116,12.561"
               style="fill:#e36ca4;fill-opacity:1;fill-rule:nonzero;stroke:none"
               id="path65115" /></g><g
             id="g65117"
             transform="translate(105.2929,191.7677)"><path
               d="M 0,0 C 10.283,9.983 23.684,15.29 38.075,14.9 66.316,14.121 89.221,-9.953 89.221,-38.794 v -0.6 c 0,-7.705 6.235,-14 13.94,-14 7.705,0 13.941,6.295 13.941,14 v 0.72 c 0,22.005 -14.361,41.012 -34.027,47.398 -0.6,1.499 -1.05,3.088 -1.589,4.647 22.725,-5.936 39.813,-27.222 39.813,-52.045 v -0.72 c 0,-9.923 -8.065,-17.718 -17.988,-17.718 H 3.568 c -10.793,0 -19.547,8.634 -19.547,19.427 0,14.361 5.666,27.672 15.979,37.685 m 3.568,-53.514 h 88.441 c -4.078,3.297 -6.686,8.484 -6.686,14.12 v 0.6 c 0,26.682 -21.226,48.987 -47.278,49.707 C 24.763,11.272 12.322,6.386 2.818,-2.848 c -9.534,-9.264 -14.78,-21.766 -14.78,-35.047 0,-8.574 6.955,-15.619 15.53,-15.619 m -3.778,16.339 c 0,-1.469 1.199,-2.668 2.668,-2.668 1.469,0 2.669,1.199 2.669,2.668 0,1.469 -1.2,2.668 -2.669,2.668 -1.469,0 -2.668,-1.199 -2.668,-2.668 m 7.105,-7.105 c 0,-1.469 1.2,-2.669 2.669,-2.669 1.469,0 2.668,1.2 2.668,2.669 0,1.469 -1.199,2.668 -2.668,2.668 -1.469,0 -2.669,-1.199 -2.669,-2.668 m 3.568,10.672 c 0,-1.469 1.199,-2.668 2.668,-2.668 1.469,0 2.668,1.199 2.668,2.668 0,1.469 -1.199,2.669 -2.668,2.669 -1.469,0 -2.668,-1.2 -2.668,-2.669"
               style="fill:#ff993b;fill-opacity:1;fill-rule:nonzero;stroke:none"
               id="path65119" /></g><g
             id="g65121"
             transform="translate(172.628,200.7916)"><path
               d="m 0,0 c 0,-1.469 1.199,-2.668 2.668,-2.668 1.469,0 2.668,1.199 2.668,2.668 0,1.469 -1.199,2.668 -2.668,2.668 C 1.199,2.668 0,1.499 0,0"
               style="fill:#5db9bb;fill-opacity:1;fill-rule:nonzero;stroke:none"
               id="path65123" /></g><g
             id="g65125"
             transform="translate(215.0497,150.9649)"><path
               d="m 0,0 c 1.109,0 2.009,0.899 2.009,2.009 0,3.897 -2.609,7.075 -5.127,10.133 -1.769,2.158 -3.418,4.167 -3.927,6.116 -0.54,2.038 -0.03,4.827 0.479,7.495 0.72,3.837 1.439,7.825 -0.359,11.122 -1.829,3.358 -5.637,4.857 -9.294,6.356 -2.608,1.049 -5.067,2.039 -6.476,3.538 -1.409,1.499 -2.248,4.017 -3.148,6.715 -1.259,3.748 -2.548,7.615 -5.786,9.624 -3.208,2.009 -7.255,1.469 -11.122,0.959 -2.699,-0.359 -5.457,-0.719 -7.466,-0.12 -1.888,0.57 -3.837,2.279 -5.906,4.108 -2.998,2.638 -6.116,5.396 -10.043,5.486 -4.047,0.15 -7.375,-2.458 -10.613,-4.977 -2.218,-1.709 -4.317,-3.328 -6.296,-3.807 -2.128,-0.51 -4.946,-0.03 -7.645,0.45 -3.927,0.689 -8.004,1.409 -11.392,-0.45 -3.418,-1.919 -4.977,-5.786 -6.476,-9.534 -1.049,-2.638 -2.068,-5.156 -3.567,-6.625 -1.529,-1.499 -4.048,-2.429 -6.716,-3.418 -3.777,-1.409 -7.705,-2.878 -9.683,-6.236 -1.949,-3.328 -1.349,-7.405 -0.75,-11.392 0.42,-2.729 0.84,-5.547 0.27,-7.645 -0.54,-1.979 -2.218,-4.018 -3.987,-6.206 -2.579,-3.178 -5.247,-6.446 -5.247,-10.463 0,-1.109 0.9,-2.009 2.009,-2.009 1.109,0 2.009,0.9 2.009,2.009 0,2.608 2.098,5.186 4.347,7.915 1.948,2.398 3.987,4.886 4.736,7.674 0.78,2.909 0.3,6.176 -0.149,9.294 -0.51,3.418 -0.99,6.656 0.239,8.754 1.26,2.159 4.348,3.298 7.645,4.527 2.938,1.11 5.996,2.219 8.125,4.318 2.128,2.068 3.328,5.096 4.497,8.004 1.289,3.238 2.518,6.296 4.707,7.525 2.128,1.169 5.336,0.63 8.754,0.03 3.118,-0.539 6.356,-1.109 9.294,-0.39 2.818,0.69 5.336,2.639 7.795,4.527 2.818,2.159 5.396,4.228 8.064,4.138 2.488,-0.06 4.917,-2.219 7.525,-4.497 2.279,-2.009 4.677,-4.108 7.405,-4.947 2.848,-0.87 6.056,-0.45 9.174,-0.03 3.328,0.45 6.506,0.869 8.484,-0.39 2.009,-1.259 3.028,-4.287 4.108,-7.525 0.989,-2.968 2.008,-6.026 4.047,-8.184 2.009,-2.129 5.007,-3.358 7.915,-4.497 3.148,-1.259 6.116,-2.459 7.285,-4.557 1.109,-2.039 0.539,-5.157 -0.06,-8.455 -0.57,-3.118 -1.169,-6.325 -0.42,-9.233 0.72,-2.789 2.758,-5.277 4.707,-7.675 C -3.867,6.925 -1.799,4.407 -1.799,1.949 -1.979,0.899 -1.109,0 0,0"
               style="fill:#c1c048;fill-opacity:1;fill-rule:nonzero;stroke:none"
               id="path65127" /></g></g></g><g
         id="g65129"
         transform="translate(-74.724941,63.722495)"><g
           id="g65131"
           clip-path="url(#clipPath65135)"><g
             id="g65137"
             transform="translate(244.6839,308.9874)"><path
               d="M 0,0 -0.004,0.001 C -1.42,0.4 -2.819,-0.336 -4.016,-1.014 -4.78,-1.448 -5.511,-1.937 -6.239,-2.429 L -6.32,-2.483 c -2.266,-1.575 -4.479,-3.224 -6.741,-4.805 -3.675,-2.577 -7.365,-5.134 -11.042,-7.708 -3.586,-2.51 -7.169,-5.025 -10.694,-7.619 -3.518,-2.589 -6.992,-5.238 -10.379,-7.995 -3.315,-2.699 -6.525,-5.528 -9.622,-8.472 -3.018,-2.868 -5.927,-5.849 -8.731,-8.925 -2.805,-3.077 -5.505,-6.25 -8.104,-9.502 -0.832,-1.041 -1.652,-2.09 -2.465,-3.146 -3.939,-5.15 -7.585,-10.524 -10.91,-16.091 -0.877,-1.465 -1.724,-2.948 -2.542,-4.447 -0.644,-1.212 -1.3,-2.421 -1.825,-3.691 -0.115,-0.29 -0.248,-0.59 -0.219,-0.912 0.314,0.107 0.519,0.382 0.736,0.613 0.912,1.05 1.731,2.176 2.558,3.292 3.873,5.309 7.529,10.772 11.426,16.064 2.542,3.469 5.166,6.906 7.995,10.147 2.735,3.133 5.628,6.128 8.664,8.97 3.162,2.961 6.49,5.744 9.87,8.45 1.277,1.022 2.564,2.032 3.859,3.032 3.501,2.703 7.026,5.374 10.589,7.991 3.638,2.673 7.275,5.346 10.913,8.018 1.672,1.254 3.392,2.441 5.077,3.68 2.356,1.714 4.712,3.431 7.107,5.089 0.649,0.441 1.302,0.876 1.989,1.255 0.19,0.11 0.406,0.164 0.624,0.177 -0.014,-0.379 -0.256,-0.686 -0.439,-1.001 -0.654,-1.017 -1.364,-1.998 -2.03,-3.007 -1.856,-2.78 -3.545,-5.708 -4.591,-8.897 -0.803,-2.435 -1.334,-5.036 -0.983,-7.603 0.264,-2.004 1.439,-3.856 3.127,-4.963 0.261,-0.166 0.509,-0.354 0.779,-0.508 0.385,-0.177 0.709,-0.481 1.133,-0.57 0.266,-0.138 0.532,-0.281 0.821,-0.363 l 0.242,-0.08 0.242,-0.08 0.244,-0.081 0.245,-0.08 0.244,-0.096 0.152,-0.022 c 0.174,-0.108 0.37,-0.206 0.583,-0.18 0.378,-0.188 0.801,-0.264 1.214,-0.33 0.394,-0.129 0.807,-0.207 1.219,-0.246 0.128,-0.06 0.269,-0.066 0.405,-0.079 0.658,-0.135 1.327,-0.178 1.986,-0.309 0.357,0.018 0.693,-0.123 1.052,-0.084 0.262,-0.094 0.538,-0.098 0.812,-0.091 0.279,-0.087 0.571,-0.093 0.86,-0.064 0.204,-0.128 0.458,-0.086 0.686,-0.127 3.318,-0.318 6.649,-0.78 9.822,-1.84 1.368,-0.451 2.71,-0.982 4.024,-1.571 0.658,-0.295 1.308,-0.605 1.953,-0.926 2.708,-1.353 5.304,-2.949 7.759,-4.719 1.194,-0.859 2.355,-1.765 3.48,-2.713 1.134,-0.955 2.186,-2.002 3.301,-2.977 2.217,-2.125 4.295,-4.394 6.205,-6.798 0.958,-1.201 1.866,-2.442 2.684,-3.742 0.821,-1.327 1.538,-2.737 1.955,-4.246 0.356,-1.296 0.494,-2.659 0.318,-3.994 -0.261,-2.122 -0.961,-4.158 -1.312,-6.264 -0.396,-2.237 -0.378,-4.577 0.305,-6.758 0.598,-1.969 1.503,-3.83 2.493,-5.631 0.904,-1.65 1.902,-3.247 2.898,-4.843 0.695,-1.13 1.423,-2.244 2,-3.44 0.248,-0.578 0.555,-1.194 0.43,-1.841 -0.082,-0.21 -0.28,-0.369 -0.5,-0.417 -0.611,-0.156 -1.242,-0.035 -1.86,0.005 -1.243,0.121 -2.486,0.362 -3.739,0.268 -0.556,-0.045 -1.175,-0.255 -1.439,-0.789 -0.287,-0.612 -0.128,-1.313 0.043,-1.936 0.371,-1.189 0.99,-2.279 1.577,-3.372 0.876,-1.59 1.815,-3.146 2.647,-4.761 0.344,-0.681 0.674,-1.376 0.893,-2.109 0.209,-0.725 0.27,-1.525 -0.025,-2.235 -0.327,-0.777 -0.919,-1.398 -1.518,-1.975 -1.154,-1.065 -2.434,-1.984 -3.745,-2.845 -2.815,-1.826 -5.786,-3.41 -8.858,-4.757 -3.357,-1.445 -6.895,-2.599 -10.562,-2.86 -4.015,-0.312 -8.034,0.498 -11.83,1.768 -1.619,0.524 -3.19,1.182 -4.768,1.816 1.814,2.364 3.728,4.651 5.518,7.033 0.275,0.414 0.644,0.795 0.756,1.292 -0.329,-0.033 -0.588,-0.258 -0.851,-0.438 -0.983,-0.739 -1.888,-1.576 -2.774,-2.429 -1.537,-1.491 -3.011,-3.048 -4.413,-4.666 -0.037,-0.041 -0.985,0.458 -1.085,0.506 -0.37,0.176 -0.738,0.355 -1.105,0.537 -1.49,0.736 -2.971,1.497 -4.404,2.339 -0.723,0.426 -1.521,0.812 -2.193,1.316 l 0.66,0.456 c 0.23,0.157 0.46,0.314 0.691,0.47 0.461,0.312 0.925,0.621 1.389,0.928 0.919,0.609 1.844,1.209 2.771,1.808 0.927,0.6 1.854,1.2 2.782,1.8 1.028,0.665 2.11,1.32 3.093,2.062 0.289,0.218 0.672,0.446 0.83,0.785 -0.632,-0.074 -1.196,-0.4 -1.776,-0.64 -1.981,-0.922 -3.93,-1.909 -5.85,-2.952 -1.936,-1.052 -3.844,-2.166 -5.729,-3.308 -0.173,-0.105 -0.349,-0.21 -0.506,-0.338 -1.231,0.713 -2.369,1.579 -3.599,2.295 -0.182,0.11 -0.381,0.197 -0.599,0.193 0.04,-0.326 0.271,-0.576 0.454,-0.836 0.529,-0.675 1.115,-1.305 1.723,-1.911 0.202,-0.208 0.428,-0.396 0.599,-0.634 -0.084,0.116 -2.163,-1.395 -2.298,-1.487 -1.018,-0.695 -2.011,-1.427 -3.008,-2.151 -1.477,-1.072 -2.945,-2.167 -4.356,-3.324 -1.675,-1.373 -3.336,-2.758 -4.947,-4.205 -1.585,-1.425 -3.132,-2.895 -4.655,-4.387 -1.552,-1.52 -3.075,-3.069 -4.567,-4.648 -1.487,-1.572 -2.963,-3.154 -4.388,-4.782 -0.63,-0.72 -1.251,-1.447 -1.864,-2.181 -0.292,-0.349 -0.581,-0.7 -0.864,-1.056 -0.144,-0.181 -0.286,-0.363 -0.427,-0.545 -0.074,-0.096 -0.148,-0.192 -0.221,-0.288 l -0.199,-0.264 c -0.243,-0.374 -0.584,-0.719 -0.66,-1.175 0.496,0.182 0.868,0.578 1.277,0.896 2.301,1.999 4.491,4.119 6.722,6.194 4.435,4.164 8.876,8.326 13.48,12.303 4.008,3.461 8.165,6.754 12.483,9.821 2.658,-2.202 5.613,-4.044 8.764,-5.454 -3.992,-4.856 -7.359,-10.192 -10.407,-15.682 -1.252,-2.291 -2.488,-4.598 -3.528,-6.995 -0.174,-0.443 -0.391,-0.88 -0.454,-1.357 0.049,-0.113 0.158,0.032 0.212,0.064 0.411,0.44 0.743,0.945 1.091,1.433 1.712,2.503 3.343,5.059 5.015,7.589 3.182,4.82 6.439,9.596 9.976,14.163 3.214,-1.273 6.565,-2.18 9.953,-2.849 2.16,-0.417 4.341,-0.729 6.536,-0.878 3.568,-0.252 7.25,-0.045 10.613,1.268 1.69,0.656 3.246,1.617 4.658,2.748 1.175,0.905 2.209,1.984 3.426,2.839 1.024,0.728 2.247,1.071 3.386,1.571 1.531,0.64 2.959,1.53 4.202,2.629 1.244,1.059 2.328,2.288 3.355,3.554 0.958,1.205 1.843,2.471 2.612,3.805 0.758,1.311 1.437,2.705 1.701,4.208 0.177,0.952 0.068,1.941 -0.251,2.851 -0.496,1.381 -1.357,2.583 -2.133,3.816 -1.748,2.64 -3.14,5.502 -4.302,8.443 -0.773,1.952 -1.434,3.95 -1.939,5.988 -0.513,2.057 -0.812,4.166 -0.909,6.282 -0.173,2.986 -0.049,5.99 -0.444,8.961 -0.381,3.053 -1.305,6.049 -2.73,8.776 -1.388,2.482 -3.079,4.741 -5.07,6.773 -1.095,1.117 -2.258,2.165 -3.459,3.167 -4.881,4.051 -10.235,7.473 -15.477,11.027 -2.215,1.523 -4.469,3.027 -6.407,4.904 -0.427,0.446 -0.839,0.906 -1.223,1.39 l 0.135,0.002 -0.139,0.014 c -1.55,2.021 -2.223,4.537 -2.685,6.999 0.608,0.4 1.161,0.881 1.79,1.249 1.393,0.815 2.752,1.681 4.164,2.464 2.86,1.586 5.805,3.026 8.75,4.455 2.242,1.088 4.48,2.184 6.786,3.132 0.73,0.3 2.394,1.066 2.78,-0.056 0.268,-0.782 0.165,-1.622 0.144,-2.432 -0.068,-0.622 -0.16,-1.241 -0.256,-1.859 -0.15,-0.856 -0.334,-1.706 -0.543,-2.55 -0.113,-0.453 -0.194,-0.914 -0.318,-1.365 -0.84,-3.052 -2.12,-5.979 -3.619,-8.763 -0.66,-1.225 -1.351,-2.434 -2.075,-3.622 -0.083,-0.137 -0.166,-0.273 -0.249,-0.409 -0.262,-0.457 -0.567,-0.892 -0.785,-1.371 l 0.016,-0.159 0.38,0.403 c 0.14,0.158 0.272,0.323 0.407,0.485 0.281,0.335 0.516,0.718 0.764,1.081 0.536,0.788 1.134,1.565 1.601,2.392 0.481,0.85 0.986,1.683 1.452,2.542 0.386,0.713 0.77,1.445 1.145,2.171 0.381,0.739 0.795,1.473 1.137,2.231 0.051,0.114 0.098,0.231 0.153,0.344 0.178,0.372 0.356,0.745 0.532,1.117 0.353,0.746 0.702,1.494 1.044,2.245 0.684,1.502 1.341,3.016 1.951,4.549 l 0.028,0.069 c 0.193,0.488 0.383,0.976 0.569,1.466 0.193,0.508 0.367,1.02 0.539,1.535 0.287,0.972 0.623,1.965 0.541,2.993 -0.025,0.445 -0.29,0.888 -0.72,1.043 -0.605,0.225 -1.295,0.17 -1.919,0.057 -1.517,-0.275 -3.043,-0.668 -4.515,-1.166 -0.737,-0.25 -1.454,-0.572 -2.189,-0.812 -0.787,-0.257 -1.569,-0.533 -2.346,-0.82 l -0.14,-0.052 c -1.538,-0.573 -3.053,-1.175 -4.57,-1.804 -3.08,-1.276 -6.136,-2.606 -9.195,-3.935 -1.349,-0.587 -2.706,-1.157 -4.053,-1.749 -0.504,3.702 -0.886,7.419 -1.373,11.123 -0.191,1.456 -0.479,2.9 -0.67,4.354 C 3.445,-6.55 3.247,-5.748 3.033,-4.953 2.829,-4.195 2.654,-3.434 2.336,-2.714 1.973,-1.887 1.534,-1.045 0.812,-0.478 0.576,-0.293 0.292,-0.084 0,0 Z"
               style="fill:#2c5882;fill-opacity:1;fill-rule:nonzero;stroke:none"
               id="path65139" /></g><g
             id="g65141"
             transform="translate(265.4908,239.1729)"><path
               d="m 0,0 c -0.955,0.03 -1.911,0.026 -2.865,-0.01 -1.589,-0.061 -3.179,-0.201 -4.755,-0.41 -0.801,-0.107 -1.6,-0.233 -2.396,-0.378 -0.406,-0.074 -0.811,-0.153 -1.215,-0.237 -0.194,-0.04 -0.387,-0.082 -0.581,-0.124 -0.121,-0.027 -0.468,-0.173 -0.579,-0.132 0.968,-0.357 2.166,-0.623 2.856,-1.454 0.66,-0.803 1.028,-1.79 1.562,-2.673 0.828,-1.455 2.117,-2.584 3.496,-3.504 1.153,-0.761 2.393,-1.399 3.704,-1.838 1.014,-0.328 2.096,-0.55 3.163,-0.413 0.791,0.094 1.543,0.452 2.118,1.001 0.75,0.686 1.281,1.563 1.807,2.421 0.823,1.346 1.664,2.689 2.697,3.885 0.279,0.353 0.599,0.682 0.798,1.09 0.607,1.3 -2.08,1.792 -2.886,1.959 C 4.645,-0.343 2.326,-0.073 0,0 Z"
               style="fill:#2c5882;fill-opacity:1;fill-rule:nonzero;stroke:none"
               id="path65143" /></g><g
             id="g65145"
             transform="translate(250.2129,203.3734)"><path
               d="m 0,0 c -0.273,0.172 -0.602,0.04 -0.898,0.01 -2.128,-0.409 -4.222,-1.038 -6.27,-1.739 -2.047,-0.7 -4.054,-1.511 -6.021,-2.411 -1.347,-0.616 -2.694,-1.26 -3.986,-1.986 -1.863,-1.009 -3.683,-2.099 -5.451,-3.267 -1.819,-1.202 -3.585,-2.485 -5.317,-3.809 -0.943,-0.72 -1.881,-1.45 -2.799,-2.201 -2.454,-2.002 -4.879,-4.049 -7.124,-6.286 -0.364,-0.407 -0.829,-0.764 -1.035,-1.284 0.476,0.081 0.851,0.417 1.257,0.653 2.566,1.72 5.046,3.565 7.566,5.352 5.267,3.75 10.561,7.506 16.275,10.558 1.913,1.021 3.857,1.984 5.84,2.861 1.013,0.448 2.032,0.884 3.055,1.309 1.003,0.416 2.041,0.778 3.025,1.234 0.242,0.113 0.492,0.209 0.731,0.329 C -0.751,-0.483 -0.336,-0.299 0,0 Z"
               style="fill:#2c5882;fill-opacity:1;fill-rule:nonzero;stroke:none"
               id="path65147" /></g></g></g><text
         xml:space="preserve"
         transform="matrix(0.75000003,0,0,-0.75000003,110.68576,524.05956)"
         id="text15825"
         style="font-style:normal;font-weight:normal;font-size:40px;line-height:1.25;font-family:sans-serif;white-space:pre;shape-inside:url(#rect15827);fill:#0b66a0;fill-opacity:1;stroke:none"><tspan
           x="68.740234"
           y="428.57227"
           id="tspan2735"><tspan
             style="font-size:52px;font-family:'Roboto Black';-inkscape-font-specification:'Roboto Black, Normal'"
             id="tspan2733">MVC</tspan></tspan></text><text
         xml:space="preserve"
         transform="matrix(0.75000002,0,0,-0.75000002,-57.304403,507.15404)"
         id="text81453"
         style="font-style:normal;font-weight:normal;font-size:40px;line-height:1.25;font-family:sans-serif;white-space:pre;shape-inside:url(#rect81455);fill:#0b66a0;fill-opacity:1;stroke:none"><tspan
           x="89.853516"
           y="475.64515"
           id="tspan2741"><tspan
             style="font-size:85.3333px;font-family:'Roboto Black';-inkscape-font-specification:'Roboto Black, Normal';fill:#fd7e14"
             id="tspan2737">Taco</tspan><tspan
             style="font-size:85.3333px;font-family:'Roboto Black';-inkscape-font-specification:'Roboto Black, Normal'"
             id="tspan2739">Cat</tspan></tspan></text></g></g></svg>
